<?xml version="1.0" encoding="utf-8"?>
<!-- Generator: Adobe Illustrator 18.0.0, SVG Export Plug-In . SVG Version: 6.00 Build 0)  -->
<!DOCTYPE svg PUBLIC "-//W3C//DTD SVG 1.1//EN" "http://www.w3.org/Graphics/SVG/1.1/DTD/svg11.dtd">
<svg version="1.1" id="Layer_1" xmlns="http://www.w3.org/2000/svg" xmlns:xlink="http://www.w3.org/1999/xlink" x="0px" y="0px"
	 viewBox="0 0 96.5 79.4" enable-background="new 0 0 96.5 79.4" xml:space="preserve">
<path fill="#FFFFFF" d="M77.8,17.1c-1.9,0-3.7,0.3-5.4,0.8C69.4,7.5,59.8,0,48.5,0c-11.4,0-21,7.6-24,18c-1.8-0.6-3.8-0.9-5.9-0.9
	C8.4,17.1,0,25.4,0,35.7C0,46,8.4,54.4,18.7,54.4c0.4,0,0.8,0,1.3,0c0.2,1.8,0.2,3.5-0.7,3.7c-1.7,0.5-4.7,1.5-2.9,1.9
	c1.8,0.4,5.4,1.2,4.8,2.6c-0.7,1.4-2.3,0.5-2.9,3.4c-0.6,2.8,0.6,13.4,0.6,13.4h56.1c0,0-0.1-13.4,0-14c0.1-0.6-1-1.5-2-2.7
	c-1.1-1.2,0.2,0,1.3-0.3c1.1-0.3,1.4-1.3,1.3-2.5c-0.1-0.7-0.1-3.3,0-5.5c0.8,0.1,1.6,0.2,2.5,0.2c10.3,0,18.7-8.4,18.7-18.7
	C96.5,25.4,88.1,17.1,77.8,17.1z"/>
</svg>
