<?xml version="1.0" encoding="utf-8"?>
<!-- Generator: Adobe Illustrator 18.1.1, SVG Export Plug-In . SVG Version: 6.00 Build 0)  -->
<!DOCTYPE svg PUBLIC "-//W3C//DTD SVG 1.1//EN" "http://www.w3.org/Graphics/SVG/1.1/DTD/svg11.dtd">
<svg version="1.1" id="Layer_1" xmlns="http://www.w3.org/2000/svg" xmlns:xlink="http://www.w3.org/1999/xlink" x="0px" y="0px"
	 viewBox="0 0 293.3 62.3" enable-background="new 0 0 293.3 62.3" xml:space="preserve">
<g>
	<path fill="#FFFFFF" d="M22.4,0c5.6,0,9.2,2.8,10.7,2.8c1.3,0,1.6-0.4,2.6-0.4c2.4,0,5.5,3.6,5.5,10c0,3.3-2,6-5.3,6
		c-5.9,0-4.4-10.2-14.6-10.2c-4.4,0-6.3,4.1-6.3,7.3c0,8.5,4.5,15.7,12.6,15.7c7.3,0,8.4-4,10.2-4c1.7,0,2.5,2,2.5,3.4
		c0,2.5-2.6,7.8-5.5,7.8c-2,0-6,3.3-12.8,3.3C9.9,41.9,0,32.3,0,20.8C0,9,11.1,0,22.4,0z"/>
	<path fill="#FFFFFF" d="M59.6,30.4c0,6.8,3.4,4.3,3.4,7.4c0,3.9-7.3,3.9-9.9,3.9c-9.9,0-10.3-2.2-10.3-3.6c0-2.1,2.4-2.2,3-4
		c0.7-2,0.9-10.3,0.2-12.5c-0.5-2-3.4-1.4-3.4-4c0-4.1,14.6-5.8,15.2-5.8c1.7,0,1.8,1.3,1.8,2.5V30.4z M48.2,10.1
		c-2.4,0-5-1.1-5-3.9c0-3.8,7.6-5.3,10.5-5.3c2.3,0,5.6,0.7,5.6,3.6C59.3,8.9,51.5,10.1,48.2,10.1z"/>
	<path fill="#FFFFFF" d="M83.3,28.7c0,3.8,1.6,4.8,3.2,4.8c1.8,0,2.8-1.3,3.8-1.3c1.1,0,2,1.6,2,2.6c0,3.8-6.5,7.1-12.4,7.1
		c-2.9,0-10.3-1.3-10.3-10.4V19.6c0-1,0-1.4-0.3-1.6C69,17.9,68.4,18,67.1,18c-1.5,0-2.2,0.1-2.5-0.2c-0.4-0.4-0.3-1-0.3-2.3
		c0-0.8-0.2-1.4,0.5-1.9l13.1-8.3c1.3-0.8,1.3-0.6,3-0.6c2.3,0,2.4-0.2,2.4,2.4c0,1.8-0.1,3.6,0.2,4.2c0.2,0.5,0.6,0.5,2.1,0.5h4
		c2.5,0,2.5,0.2,2.5,2.8c0,3.3-0.4,3.5-2.6,3.5h-4c-2,0-2.1,0.1-2.1,2.1V28.7z"/>
	<path fill="#FFFFFF" d="M110.1,30.4c0,6.8,3.4,4.3,3.4,7.4c0,3.9-7.3,3.9-9.9,3.9c-9.9,0-10.3-2.2-10.3-3.6c0-2.1,2.4-2.2,3-4
		c0.7-2,0.9-10.3,0.2-12.5c-0.5-2-3.4-1.4-3.4-4c0-4.1,14.6-5.8,15.2-5.8c1.7,0,1.8,1.3,1.8,2.5V30.4z M98.8,10.1
		c-2.4,0-5-1.1-5-3.9c0-3.8,7.6-5.3,10.5-5.3c2.3,0,5.6,0.7,5.6,3.6C109.8,8.9,102,10.1,98.8,10.1z"/>
	<path fill="#FFFFFF" d="M119.9,29.7c0-6-0.3-7.4-0.6-7.6c-0.7-0.7-3.8,0-3.8-3.3c0-3.9,11.8-6.9,16.1-6.9c1.4,0,1.6,0.5,1.6,1.7
		c0,0.4,0.1,1.2,0.6,1.2c0.8,0,4-3.1,8.7-3.1c7.5,0,11.5,7.5,11.5,14.2c0,7.7-5.5,15.9-13.8,15.9c-2.7,0-5.4-1.4-5.9-1.4
		c-0.8,0-0.4,10.7-0.4,11.4c0,4.4,3.1,4,3.1,6.9c0,3.2-5.2,3.6-7.5,3.6c-7.7,0-13.4-2.3-13.4-5.2c0-2.6,1.7-3.3,2.7-5.6
		c1-2.1,1.2-12.3,1.2-18.6V29.7z M135.7,20.2c-2.1,0-2.8,0.9-2.8,11.3c0,1.9,0.9,2.6,2.9,2.6c3.6,0,4-3.8,4-6.6
		C139.8,24.8,139.3,20.2,135.7,20.2z"/>
	<path fill="#FFFFFF" d="M184.3,27.3c0,10.1,3.4,4.6,3.4,7.7c0,3.3-4.5,6.8-8.7,6.8c-4.5,0-4.7-2.9-6.1-2.9c-0.7,0-1.4,0.7-2.7,1.4
		c-1.3,0.7-3,1.5-5.6,1.5c-4.8,0-9.5-2.5-9.5-8.2c0-4.1,3.9-9.1,14-9.1c1.8,0,2.6,0.1,2.6-2c0-1.9-0.1-5.9-2.7-5.9
		c-3.4,0-3.8,6.2-8.9,6.2c-1.8,0-3.2-1.3-3.2-3.2c0-4.9,9.7-8,15.2-8c3.3,0,12.2,1.3,12.2,9.9V27.3z M167.1,32.4
		c0,1.5,0.8,3.1,2.5,3.1c2.2,0,2.4-2.4,2.4-4.1c0-1.3,0.1-2.7-1.6-2.7C168.4,28.7,167.1,30.6,167.1,32.4z"/>
	<path fill="#FFFFFF" d="M193,23.7c0-5.6-3.6-2.5-3.6-6c0-4.5,13.4-5.8,14-5.8c2.2,0,2.2,0.6,2.5,2.5c0.1,0.7,0,2,1,2
		c1.4,0,2.2-4.5,7.2-4.5c3.8,0,6.4,2.9,6.4,6.7c0,3.8-3.3,6.9-7.1,6.9c-3.7,0-4.8-3.3-6.3-3.3c-1.6,0-1.3,3.8-1.3,4.9
		c0,1.7,0.2,4.1,0.5,6.3c0.3,2.5,4.7,1,4.7,4.4c0,3.6-5.1,3.9-11.4,3.9c-2.6,0-10.5,0.1-10.5-3.8c0-2.4,2.6-2.4,3.3-4.4
		c0.5-1.4,0.6-4.7,0.6-6.3V23.7z"/>
	<path fill="#FFFFFF" d="M242,32.3c-0.2-0.3-1.6-2.3-2.2-2.3c-0.6,0-0.6,1.3-0.6,1.6c-0.2,5.1,2.4,3.4,2.4,6.1c0,1.6-0.4,4-9.4,4
		c-4.7,0-10.1,0.2-10.1-3.6c0-2.8,3-0.7,3.2-5.6c0.2-4,0.5-9.5,0.5-12v-8.2c0-4.7-4.4-1.6-4.4-4.8c0-3.8,13-6.7,16-6.7
		c1.6,0,1.7,0.9,1.6,2.2l-0.3,12.2c-0.1,3.7-0.1,5.1,1.3,5.1c0.9,0,4.6-2,4.6-2.8c0-0.8-1.1-1.3-1.1-2.4c0-3,5.9-3.2,7.9-3.2
		c2.4,0,8.6,0.1,8.6,3.6c0,2.6-2.1,1.4-5.6,3.5c-0.6,0.3-2.8,1.4-2.8,2.1c0,1.4,6.7,9.7,7.8,11c2.6,3.2,5.7,3.2,5.7,5.6
		c0,1.8-1.3,3.3-5.7,3.3h-8.1c-2.3,0-2.6-0.1-4-1.9L242,32.3z"/>
	<path fill="#FFFFFF" d="M280.7,12.1c1,0.2,2,0.4,2.4,0.4c0.6,0,1-0.2,1.6-0.4c0.5-0.2,1-0.3,1.6-0.3c2.6,0,5.3,5.3,5.3,7.6
		c0,1.6-1.3,2.7-2.8,2.7c-3.3,0-5.1-4.5-7.6-4.5c-1,0-2.1,0.9-2.1,2c0,3.7,12.6,4.4,12.6,13.3c0,5.4-5.2,9.1-11.2,9.1
		c-1.1,0-2.8-0.2-4.3-0.4c-1.4-0.2-2.7-0.3-3-0.3c-0.4,0-0.7,0.1-1.1,0.1c-0.3,0.1-0.7,0.1-1.1,0.1c-1.1,0-1.7-0.2-2.5-1.1
		c-1.4-1.6-2.9-4.9-2.9-7.1c0-1.5,0.5-2.7,2.2-2.7c2.5,0,4.8,5.7,8,5.7c1.1,0,2.2-0.6,2.2-1.8c0-3.4-11.3-3.8-11.3-13.3
		c0-5.7,4.7-9.4,10.6-9.4C278.4,11.7,279.6,11.9,280.7,12.1z"/>
	<text transform="matrix(1 0 0 1 16.1036 54.0219)" fill="#FFFFFF" font-family="'TimesNewRomanPSMT'" font-size="12.9283">City of Pittsburgh</text>
	<text transform="matrix(1 0 0 1 137.8795 54.0219)" fill="#FFFFFF" font-family="'TimesNewRomanPSMT'" font-size="12.9283">Dept. of Parks and Recreation</text>
</g>
</svg>
