<?xml version="1.0" encoding="utf-8"?>
<!-- Generator: Adobe Illustrator 18.1.1, SVG Export Plug-In . SVG Version: 6.00 Build 0)  -->
<!DOCTYPE svg PUBLIC "-//W3C//DTD SVG 1.1//EN" "http://www.w3.org/Graphics/SVG/1.1/DTD/svg11.dtd">
<svg version="1.1" xmlns="http://www.w3.org/2000/svg" xmlns:xlink="http://www.w3.org/1999/xlink" x="0px" y="0px"
	 viewBox="0 0 695 216.7" enable-background="new 0 0 695 216.7" xml:space="preserve">
<g id="Layer_1">
</g>
<g id="Layer_2">
	<path fill="#F47921" d="M97,8.6H77.5v8c0,0-7.9-10.1-29.3-10.1S2.5,13,0.4,57.6c-2,43.9,33.3,52.6,50.2,52.6s28.1-12.1,28.1-12.1
		v10.7h19.1c0,0-0.7-37.5,0-37.5s10.2,0,10.2,0v-15H63.5v15.4h14.4c0,0-2.4,22.7-25,22.7s-28.7-21-28.7-36c0,0-2.5-36,29.3-36
		c0,0,25,0,25,21.6h18.7L97,8.6z"/>
	<path fill="#F47921" d="M206,92.4c0-23.1-18.8-32.5-18.8-32.5C206.1,59.8,206,35,206,35c0-28.1-35.5-26.4-35.5-26.4h-54.5v15.2
		h12.4v68.5h-12.4v15.7h46.8v-16h-13.1V67.7H168c12.8,0,21.7,40.2,21.7,40.2h26.6V92.4H206z M171.7,51.9h-21.8V23.8h22.5
		c0,0,12.6-0.5,12.6,14S171.7,51.9,171.7,51.9z"/>
	<path fill="#F47921" d="M231.3,23.8H221V8.5h45.2v15.1h-12.5v50.7c0,0-1,20,19.8,20c20.9,0,22-16.8,22-20.2V23.6h-13.3V8.5h42.8
		v15.2h-10v50.4c0,0,0.9,36.1-42,36.1s-40.8-35.7-40.8-35.7l0.3-50.8H231.3z"/>
	<path fill="#F47921" d="M401.6,55.7c17-5.6,16-22.7,16-22.7c0-25.5-29.5-24.5-29.5-24.5h-55.4v15.3h10.8v68.6h-10.8V108
		c0,0,34.2,0,60.6,0s26.7-26.8,26.7-26.8C419.9,59.2,401.6,55.7,401.6,55.7z M365.1,23.6h21.1c0,0,10.6-0.4,10.6,12.9
		c0,13.3-10.9,12.9-10.9,12.9h-20.8V23.6z M384.9,93c-2.3,0-19.7,0.2-19.7,0.2V63.7H387c0,0,12.4-0.6,12.4,14.7S387.3,93,384.9,93z"
		/>
	<path fill="#FEC62C" d="M693.1,63.1c-4.1-2.4-8.9,6.2-8.9,6.2c-18.1,28.1-51.8,30.2-51.8,30.2c12.4-11.6,32-28.1,35.8-54.5
		c3.9-26.4-19-37.6-31.7-38.8c-12.7-1.2-26.7,4.4-31.1,8.9s-6.2-0.9-6.2-0.9S595.3,0.3,583.7,0c-11.6-0.3-29,63.7-29,63.7
		c-3.9,11.8-3.6,11.6-16.9,22.8c-13.3,11.3-7.1-11.8-7.1-11.8s9.5-43.8,9.8-57.2c0.3-13.3-7.4-18.4-22.8-14.6
		C502.3,6.6,507,19.6,507,19.6s3.9,18.4-5.3,44.1c-9.2,25.8-19.6,27.3-23.7,26.7c-4.1-0.6-13.3-5-7.7-23.7
		c5.6-18.7,10.7-41.5,8.6-52.1c-2.1-10.7-7.1-12.1-19-11.6c-11.8,0.6-13.6,12.4-13.6,12.4s-14,61.2-14.5,72.8
		c-0.4,11.6,7.6,26.8,33.9,26.8c26.3,0,35-17.9,35-17.9c4.3,32.5,45.4,10.9,45.4,10.9s-6.2,35.4-6.5,46.1
		c-0.3,10.7,6.8,23.4,17.2,23.4c10.4,0,11.8-12.4,11.8-12.4l10.4-58.7c0,0,11.8,13.3,51.2,13.3c39.4,0,59.2-28.7,61.3-33.2
		C693.6,82.1,697.2,65.5,693.1,63.1z M581.1,92.1c0,0,11.6-68.1,44.1-59.8C657.8,40.6,615.7,98.4,581.1,92.1z"/>
	<g>
		<path fill="#F47921" d="M3.9,195.1l2.6-20.2H0v-5.3h7.3l1.9-15.5h-7V149h7.7l2.5-19.7h5.2L15.1,149H23l2.5-19.7h5.1L28.1,149h6.5
			v5.2h-7.2l-1.9,15.5h7.1v5.1h-7.7l-2.6,20.4h-5.3l2.6-20.4h-7.8l-2.5,20.4H3.9z M20.3,169.7l1.9-15.5h-7.8l-1.9,15.5H20.3z"/>
		<path fill="#F47921" d="M72.8,146.1c-0.1,3.4-0.4,7.8-0.4,15.3v27.4c0,12.9-1.6,17.7-4.9,21.3c-2.9,3.3-7.6,5.3-13.1,5.3
			c-4.2,0-8.2-1-10.7-2.4l1.8-6.1c1.9,1,5.2,2.1,9.1,2.1c6.2,0,10-3.8,10-15v-5h-0.2c-1.7,3.8-5.3,6-9.4,6
			c-8.7,0-14.4-9.8-14.4-24.2c0-18,8.2-25.5,15.4-25.5c5.3,0,7.7,3.4,9.1,6.4h0.2l0.4-5.6H72.8z M64.7,163c0-1.2-0.1-2.5-0.4-3.5
			c-0.9-3.3-2.6-7.5-7.1-7.5c-5.7,0-8.7,7.6-8.7,18.4c0,12.6,4,18.2,8.7,18.2c2.3,0,5.4-1.1,7-7c0.4-1.5,0.5-3,0.5-4.5V163z"/>
		<path fill="#F47921" d="M89.3,171.3c0.1,15,6,18.2,11.6,18.2c3.3,0,6.2-0.8,8.1-1.9l1.2,5.8c-2.7,1.5-6.9,2.3-10.7,2.3
			c-11.7,0-17.8-9.6-17.8-24.6c0-15.9,6.7-25.8,16.5-25.8c10,0,14,10.5,14,21.7c0,1.8,0,3.1-0.1,4.4H89.3z M104.7,165.5
			c0.2-9.8-3.5-14.2-7.3-14.2c-5.1,0-7.7,7.5-8,14.2H104.7z"/>
		<path fill="#F47921" d="M130.7,133.1v13h9.4v6h-9.4v29.1c0,6.4,2.3,8.1,5.2,8.1c1.2,0,2.2-0.1,3.1-0.3l0.3,6
			c-1.4,0.5-3.2,0.8-5.8,0.8c-3,0-5.8-0.8-7.7-2.9c-1.9-2.2-2.9-5.6-2.9-12.4v-28.4h-6v-6h6v-10.7L130.7,133.1z"/>
		<path fill="#F47921" d="M152.7,146.1l6.5,28.2c0.9,3.8,1.4,7.1,2,10.1h0.2c0.5-2.7,1.3-6.5,2.1-10l5.8-28.3h7.7l-8,31.5
			c-3,12.4-6.4,24.2-12.2,31.6c-3.4,4.4-7.1,6.7-8.8,7.5l-2.8-6.7c2.2-1.2,4.7-3.3,6.9-6.2c2-2.5,3.6-5.9,4.5-8.2
			c0.4-1.2,0.5-1.7,0.5-2.4c0-0.6,0-1.2-0.2-1.8l-12.4-45.3H152.7z"/>
		<path fill="#F47921" d="M213.1,170.6c0,18.9-8.8,25.3-16.3,25.3c-8.8,0-15.9-8-15.9-25.2c0-17.9,8-25.4,16.4-25.4
			C206,145.3,213.1,153.5,213.1,170.6z M188.7,170.6c0,8.1,1.4,19.1,8.5,19.1c6.7,0,8-11.5,8-19.1c0-7.5-1.3-19-8.2-19
			C190,151.6,188.7,163.1,188.7,170.6z"/>
		<path fill="#F47921" d="M251.7,181.7c0,5.5,0.3,9.7,0.4,13.4h-6.8l-0.5-5.2h-0.2c-1.5,2.4-5.3,6-10.5,6c-8.6,0-11.9-6.7-11.9-18.8
			v-31h7.8V176c0,7.7,1.2,13.4,6.6,13.4c4.6,0,6.6-4.3,7-6.5c0.3-1.3,0.4-2.8,0.4-4.5v-32.3h7.8V181.7z"/>
		<path fill="#F47921" d="M263.2,158.7c0-4.2-0.3-9-0.4-12.7h7l0.4,7.7h0.2c1.6-4.7,5.8-8.5,10.3-8.5c0.6,0,1.1,0.1,1.6,0.1v8
			c-0.5-0.1-1-0.1-1.6-0.1c-5,0-8.6,4.6-9.4,10.2c-0.2,1.3-0.3,2.8-0.3,4.5v27.1h-7.8V158.7z"/>
		<path fill="#F47921" d="M317.6,146.1c-0.1,3.4-0.4,7.8-0.4,15.3v27.4c0,12.9-1.6,17.7-4.9,21.3c-2.9,3.3-7.6,5.3-13.1,5.3
			c-4.2,0-8.2-1-10.7-2.4l1.8-6.1c1.9,1,5.2,2.1,9.1,2.1c6.2,0,10-3.8,10-15v-5h-0.2c-1.7,3.8-5.3,6-9.4,6
			c-8.7,0-14.4-9.8-14.4-24.2c0-18,8.2-25.5,15.4-25.5c5.3,0,7.7,3.4,9.1,6.4h0.2l0.4-5.6H317.6z M309.5,163c0-1.2-0.1-2.5-0.4-3.5
			c-0.9-3.3-2.6-7.5-7.1-7.5c-5.7,0-8.7,7.6-8.7,18.4c0,12.6,4,18.2,8.7,18.2c2.3,0,5.4-1.1,7-7c0.4-1.5,0.5-3,0.5-4.5V163z"/>
		<path fill="#F47921" d="M328.5,158.7c0-4.2-0.3-9-0.4-12.7h7l0.4,7.7h0.2c1.6-4.7,5.8-8.5,10.3-8.5c0.6,0,1.1,0.1,1.6,0.1v8
			c-0.5-0.1-1-0.1-1.6-0.1c-5,0-8.6,4.6-9.4,10.2c-0.2,1.3-0.3,2.8-0.3,4.5v27.1h-7.8V158.7z"/>
		<path fill="#F47921" d="M383.4,181.7c0,5.5,0.3,9.7,0.4,13.4H377l-0.5-5.2h-0.2c-1.5,2.4-5.3,6-10.5,6c-8.6,0-11.9-6.7-11.9-18.8
			v-31h7.8V176c0,7.7,1.2,13.4,6.6,13.4c4.6,0,6.6-4.3,7-6.5c0.3-1.3,0.4-2.8,0.4-4.5v-32.3h7.8V181.7z"/>
		<path fill="#F47921" d="M394.4,195.1c0.1-2.8,0.4-8.4,0.4-11.7V125h7.8v26.8h0.2c2.5-4.9,6.2-6.6,10.3-6.6
			c7.6,0,13.4,8.8,13.4,24.8c0,17.7-7.3,25.8-14.9,25.8c-5.2,0-7.8-3-9.7-7.2h-0.3l-0.5,6.4H394.4z M402.6,177.8c0,1.1,0,2.2,0.3,3
			c1.8,7.3,5.2,8.6,7.3,8.6c6.3,0,8.5-8.5,8.5-18.9c0-9.8-2.3-18.5-8.6-18.5c-3.6,0-6.7,4.6-7.3,8.7c-0.2,1.1-0.2,2.3-0.2,3.4V177.8
			z"/>
		<path fill="#F47921" d="M466,170.6c0,18.9-8.8,25.3-16.3,25.3c-8.8,0-15.9-8-15.9-25.2c0-17.9,8-25.4,16.4-25.4
			C458.9,145.3,466,153.5,466,170.6z M441.6,170.6c0,8.1,1.4,19.1,8.5,19.1c6.7,0,8-11.5,8-19.1c0-7.5-1.3-19-8.2-19
			C442.9,151.6,441.6,163.1,441.6,170.6z"/>
		<path fill="#F47921" d="M475.3,158.7c0-5.8-0.3-8.7-0.4-12.7h6.8l0.4,5.9h0.2c2.1-4,6.1-6.7,11.2-6.7c6.8,0,11.8,5.1,11.8,16.9
			v32.9h-7.8v-31.6c0-5.8-1.1-11.6-6.8-11.6c-3.2,0-6.4,2.7-7.4,8c-0.2,1.2-0.3,2.7-0.3,4.4v30.9h-7.8V158.7z"/>
	</g>
</g>
</svg>
