<?xml version="1.0" encoding="utf-8"?>
<!-- Generator: Adobe Illustrator 18.0.0, SVG Export Plug-In . SVG Version: 6.00 Build 0)  -->
<!DOCTYPE svg PUBLIC "-//W3C//DTD SVG 1.1//EN" "http://www.w3.org/Graphics/SVG/1.1/DTD/svg11.dtd">
<svg version="1.1" id="Layer_1" xmlns="http://www.w3.org/2000/svg" xmlns:xlink="http://www.w3.org/1999/xlink" x="0px" y="0px"
	 viewBox="0 0 500 500" enable-background="new 0 0 500 500" xml:space="preserve">
<g>
	<g>
		<polygon fill="#F27921" points="216.1,222.8 216.5,266.8 230.5,275.1 281.5,262.6 281.1,221.5 265.8,216.1 		"/>
		<path fill="#FFFFFF" d="M265.5,213.6l-49.7,6.7c-1.3,0.2-2.2,1.2-2.2,2.5l0.3,44c0,0.9,0.5,1.7,1.2,2.2l14,8.3
			c0.6,0.3,1.2,0.4,1.9,0.3l51-12.5c1.1-0.3,1.9-1.3,1.9-2.5l-0.3-41.2c0-1.1-0.7-2-1.7-2.4l-15.3-5.3
			C266.2,213.6,265.8,213.6,265.5,213.6z M265.5,218.7c0.9,0.3,10.5,3.7,13.1,4.5c0,3.1,0.3,34,0.3,37.4c-3.5,0.9-46.2,11.3-48,11.7
			c-1.4-0.8-10-6-11.9-7.1c0-2.5-0.3-36.5-0.3-40.3C222.6,224.5,264.4,218.9,265.5,218.7z"/>
	</g>
	<g>
		<path fill="#FFFFFF" d="M280.8,220.5c0,0-48.5,7-49.9,7.2c-1.2-0.5-13-5.9-13-5.9c-1.3-0.6-2.8,0-3.3,1.3c-0.6,1.3,0,2.8,1.3,3.3
			l13.7,6.2c0.4,0.2,0.9,0.3,1.4,0.2l50.6-7.3c1.4-0.2,2.3-1.5,2.1-2.9C283.4,221.2,282.1,220.3,280.8,220.5z"/>
	</g>
	<g>
		<path fill="#FFFFFF" d="M229.7,231.1v39.8c0,1.3,1.1,2.4,2.5,2.4c1.4,0,2.5-1.1,2.5-2.4v-39.8c0-1.3-1.1-2.4-2.5-2.4
			C230.8,228.7,229.7,229.7,229.7,231.1z"/>
	</g>
	<g>
		<path fill="#FFFFFF" d="M252.4,207l-17.9,2.6c-0.7,0.1-1.3,0.5-1.7,1.1c-0.4,0.6-0.5,1.3-0.4,2l2.5,11.8c0.3,1.4,1.6,2.2,3,1.9
			c1.2-0.3,2-1.3,2-2.5c0-0.2,0-0.4-0.1-0.5c0,0-1.3-6-2-9.2c3.5-0.5,11.9-1.7,13.9-2c1.4,1.7,7.5,9,7.5,9c0.9,1.1,2.5,1.2,3.6,0.3
			c1.1-0.9,1.2-2.5,0.3-3.6l-8.4-10C254.2,207.2,253.3,206.8,252.4,207z"/>
	</g>
	<g>
		<path fill="#F27921" d="M272.3,262.7c0-2.3-5.2-4.1-11.7-4.1c-6.4,0-11.7,1.8-11.7,4.1v19.5c0,2.3,5.2,4.1,11.7,4.1
			c6.4,0,11.7-1.8,11.7-4.1h0L272.3,262.7L272.3,262.7z"/>
		<g>
			<path fill="#FFFFFF" d="M268.8,246.9c-5.2,2-12,1.4-16.2,0.1c-0.3-0.1-0.7,0.1-0.8,0.4c-0.1,0.3,0.1,0.7,0.4,0.8
				c4.4,1.4,11.5,2,17-0.1c0.3-0.1,0.5-0.5,0.4-0.8C269.5,246.9,269.1,246.7,268.8,246.9z"/>
		</g>
		<g>
			<path fill="#FFFFFF" d="M246.8,245.6v36.6c0,4.3,6.9,6.2,13.8,6.2c6.9,0,13.8-1.9,13.8-6.2l0-36.6h0c0-4.3-6.9-6.2-13.8-6.2
				C253.8,239.4,246.8,241.3,246.8,245.6z M260.6,243.7c5.7,0,9,1.5,9.5,2.1c0,0.5,0,35.7,0,36.2c-0.5,0.7-3.8,2.1-9.5,2.1
				c-5.7,0-9-1.5-9.5-2.1c0-0.4,0-35.7,0-36.2C251.6,245.2,254.9,243.7,260.6,243.7z M270.1,245.6L270.1,245.6
				C270.1,245.7,270.1,245.7,270.1,245.6z M270.1,282.3L270.1,282.3L270.1,282.3z"/>
		</g>
	</g>
</g>
</svg>
