<?xml version="1.0" encoding="utf-8"?>
<!-- Generator: Adobe Illustrator 18.0.0, SVG Export Plug-In . SVG Version: 6.00 Build 0)  -->
<!DOCTYPE svg PUBLIC "-//W3C//DTD SVG 1.1//EN" "http://www.w3.org/Graphics/SVG/1.1/DTD/svg11.dtd">
<svg version="1.1" id="Layer_1" xmlns="http://www.w3.org/2000/svg" xmlns:xlink="http://www.w3.org/1999/xlink" x="0px" y="0px"
	 viewBox="0 0 41.5 48.1" enable-background="new 0 0 41.5 48.1" xml:space="preserve">
<g>
	<g>
		<path fill="#FFFFFF" d="M39.6,8c0,0-28.6,4.1-29.4,4.3c-0.7-0.3-7.7-3.5-7.7-3.5c-0.7-0.3-1.6,0-2,0.7c-0.3,0.7,0,1.6,0.7,2
			l8.1,3.6c0.3,0.1,0.5,0.2,0.8,0.1L40,10.9c0.8-0.1,1.4-0.9,1.3-1.7C41.2,8.4,40.4,7.9,39.6,8z"/>
	</g>
	<g>
		<path fill="#FFFFFF" d="M9.5,14.2v23.4c0,0.8,0.7,1.4,1.5,1.4c0.8,0,1.5-0.6,1.5-1.4V14.2c0-0.8-0.7-1.4-1.5-1.4
			C10.1,12.8,9.5,13.4,9.5,14.2z"/>
	</g>
	<g>
		<path fill="#FFFFFF" d="M22.9,0L12.3,1.5c-0.4,0.1-0.8,0.3-1,0.6c-0.2,0.3-0.3,0.8-0.2,1.2l1.5,7c0.2,0.8,1,1.3,1.8,1.1
			c0.7-0.1,1.2-0.8,1.2-1.5c0-0.1,0-0.2,0-0.3c0,0-0.8-3.5-1.2-5.4c2.1-0.3,7-1,8.2-1.2c0.8,1,4.4,5.3,4.4,5.3
			C27.4,9,28.4,9.1,29,8.6c0.6-0.5,0.7-1.5,0.2-2.1l-4.9-5.9C23.9,0.1,23.4-0.1,22.9,0z"/>
	</g>
	<g>
		<g>
			<path fill="#FFFFFF" d="M32.5,23.5c-3.1,1.2-7.1,0.8-9.5,0.1c-0.2-0.1-0.4,0-0.5,0.2c-0.1,0.2,0,0.4,0.2,0.5
				c2.6,0.8,6.8,1.2,10-0.1c0.2-0.1,0.3-0.3,0.2-0.5C33,23.6,32.7,23.5,32.5,23.5z"/>
		</g>
		<g>
			<path fill="#FFFFFF" d="M19.6,22.8v21.6c0,2.5,4.1,3.7,8.1,3.7c4.1,0,8.1-1.1,8.1-3.7l0-21.6h0c0-2.5-4.1-3.7-8.1-3.7
				C23.7,19.1,19.6,20.3,19.6,22.8z M27.7,21.7c3.4,0,5.3,0.9,5.6,1.3c0,0.3,0,21.1,0,21.3c-0.3,0.4-2.2,1.3-5.6,1.3
				c-3.4,0-5.3-0.9-5.6-1.3c0-0.3,0-21.1,0-21.3C22.4,22.6,24.3,21.7,27.7,21.7z M33.3,22.8L33.3,22.8
				C33.3,22.8,33.3,22.8,33.3,22.8z M33.3,44.4L33.3,44.4L33.3,44.4z"/>
		</g>
	</g>
	<path fill="#FFFFFF" d="M41.3,8.5c0-0.6-0.4-1.2-1-1.4l-9-3.1c-0.2-0.1-0.5-0.1-0.7-0.1L1.3,7.9C0.5,8,0,8.6,0,9.4l0.2,25.9
		c0,0.5,0.3,1,0.7,1.3l8.3,4.9c0.3,0.2,0.7,0.3,1.1,0.2l11.8-2.9v-3.1c-6,1.5-11.4,2.8-11.9,2.9c-0.8-0.5-5.9-3.5-7-4.2
		C3.2,32.9,3,12.9,3,10.6C5.3,10.3,30,7,30.6,6.9c0.6,0.2,6.2,2.2,7.7,2.7c0,1.8,0.2,20,0.2,22.1c-0.5,0.1-2.5,0.6-5.2,1.3V36l7-1.7
		c0.7-0.2,1.1-0.8,1.1-1.5L41.3,8.5z"/>
</g>
</svg>
