<?xml version="1.0" encoding="utf-8"?>
<!-- Generator: Adobe Illustrator 18.1.1, SVG Export Plug-In . SVG Version: 6.00 Build 0)  -->
<!DOCTYPE svg PUBLIC "-//W3C//DTD SVG 1.1//EN" "http://www.w3.org/Graphics/SVG/1.1/DTD/svg11.dtd">
<svg version="1.1" id="Layer_1" xmlns="http://www.w3.org/2000/svg" xmlns:xlink="http://www.w3.org/1999/xlink" x="0px" y="0px"
	 viewBox="0 0 59.8 122" enable-background="new 0 0 59.8 122" xml:space="preserve">
<g>
	<path fill="#FFFFFF" d="M53.2,0H6.6C2.9,0,0,2.9,0,6.6v108.9c0,3.6,2.9,6.6,6.6,6.6l46.7,0c3.6,0,6.6-2.9,6.6-6.6V6.6
		C59.8,2.9,56.8,0,53.2,0z M29.1,2h1.6c3.6,0,6.6,0.9,6.6,2c0,1.1-2.9,2-6.6,2h-1.6c-3.6,0-6.6-0.9-6.6-2C22.5,3,25.5,2,29.1,2z
		 M30.9,117.7h-2c-4.5,0-8.2-1.5-8.2-3.2c0-1.8,3.7-3.2,8.2-3.2h2c4.5,0,8.2,1.5,8.2,3.2C39.1,116.3,35.4,117.7,30.9,117.7z
		 M53.9,100.9c0,2.9-2.4,5.3-5.3,5.3H11.1c-2.9,0-5.3-2.4-5.3-5.3V13.5c0-2.9,2.4-5.3,5.3-5.3h37.5c2.9,0,5.3,2.4,5.3,5.3V100.9z"/>
</g>
</svg>
